<svg xmlns="http://www.w3.org/2000/svg" xmlns:xlink="http://www.w3.org/1999/xlink" version="1.1" x="0px" y="0px" viewBox="0 0 100 100" enable-background="new 0 0 100 100" xml:space="preserve"><path d="M59.155,6.187c-6.997,0.658-13.334,3.95-18.025,8.806h3.704c3.457-2.963,7.736-5.103,12.51-5.926  c17.613-3.21,33.251,11.358,31.522,29.054C87.714,50.713,77.509,60.92,64.998,62.154c-7.736,0.74-14.814-1.729-20.164-6.256H41.13  c6.009,6.174,14.65,9.713,24.115,8.807c13.745-1.398,24.855-12.51,26.256-26.255C93.229,19.849,77.673,4.376,59.155,6.187z"></path><rect x="21.364" y="34.126" width="30.833" height="2.634"></rect><rect x="35.464" y="20.027" width="2.634" height="30.834"></rect></svg>